<?xml version="1.0" encoding="UTF-8" standalone="no"?>
<!-- Created with Inkscape (http://www.inkscape.org/) -->

<svg
   version="1.1"
   id="svg889"
   width="602.22095"
   height="121.1048"
   viewBox="0 0 602.22095 121.1048"
   sodipodi:docname="logo-white.svg"
   inkscape:version="1.2.1 (9c6d41e410, 2022-07-14, custom)"
   xmlns:inkscape="http://www.inkscape.org/namespaces/inkscape"
   xmlns:sodipodi="http://sodipodi.sourceforge.net/DTD/sodipodi-0.dtd"
   xmlns="http://www.w3.org/2000/svg"
   xmlns:svg="http://www.w3.org/2000/svg">
  <defs
     id="defs893">
    <linearGradient
       x1="0.25"
       y1="0"
       x2="0.75"
       y2="0"
       gradientUnits="userSpaceOnUse"
       gradientTransform="matrix(-82.68297,47.24741,-45.72923,-80.02615,163.1999,590.9301)"
       spreadMethod="pad"
       id="linearGradient915">
      <stop
         style="stop-opacity:1;stop-color:#005475"
         offset="0"
         id="stop909" />
      <stop
         style="stop-opacity:1;stop-color:#0778a2"
         offset="0.3"
         id="stop911" />
      <stop
         style="stop-opacity:1;stop-color:#20add4"
         offset="1"
         id="stop913" />
    </linearGradient>
    <linearGradient
       x1="0.18000001"
       y1="0"
       x2="0.81999999"
       y2="0"
       gradientUnits="userSpaceOnUse"
       gradientTransform="matrix(-68.03754,15.27373,-15.27386,-68.03809,194.5993,597.8322)"
       spreadMethod="pad"
       id="linearGradient933">
      <stop
         style="stop-opacity:1;stop-color:#ffcc00"
         offset="0"
         id="stop929" />
      <stop
         style="stop-opacity:1;stop-color:#ff6600"
         offset="1"
         id="stop931" />
    </linearGradient>
  </defs>
  <sodipodi:namedview
     id="namedview891"
     pagecolor="#505050"
     bordercolor="#ffffff"
     borderopacity="1"
     inkscape:showpageshadow="0"
     inkscape:pageopacity="0"
     inkscape:pagecheckerboard="1"
     inkscape:deskcolor="#505050"
     showgrid="false"
     inkscape:zoom="0.79998603"
     inkscape:cx="53.125928"
     inkscape:cy="249.37935"
     inkscape:window-width="1920"
     inkscape:window-height="1021"
     inkscape:window-x="0"
     inkscape:window-y="32"
     inkscape:window-maximized="1"
     inkscape:current-layer="g897">
    <inkscape:page
       x="0"
       y="0"
       id="page895"
       width="602.22095"
       height="121.1048" />
  </sodipodi:namedview>
  <g
     id="g897"
     inkscape:groupmode="layer"
     inkscape:label="Page 1"
     transform="matrix(1.3333333,0,0,-1.3333333,-83.466665,809.21011)">
    <g
       id="g899">
      <g
         id="g901">
        <g
           id="g907">
          <path
             d="m 98.9408,589.3866 c 0.0184,1.5636 -0.5398,2.9143 -1.6748,4.0479 -1.0661,1.0658 -2.41,1.6333 -4.024,1.7033 -1.6166,0.0692 -2.9574,-0.4294 -4.0263,-1.4961 l -12.5862,-12.5864 24.761,-24.7618 20.6365,20.6348 c 1.135,1.135 1.7039,2.5087 1.7039,4.1253 -0.003,1.6158 -0.5689,2.9942 -1.7039,4.1278 -1.1696,1.1696 -2.5297,1.77 -4.0748,1.8054 -1.5475,0.0346 -2.9044,-0.5329 -4.074,-1.7025 l -8.1541,-8.151 c -1.3754,-1.3754 -2.863,-2.0373 -4.4604,-1.986 -1.5978,0.0516 -2.9471,0.6282 -4.0484,1.7286 -1.0684,1.0667 -1.6427,2.3647 -1.7294,3.8951 -0.0853,1.529 0.5077,2.9988 1.7776,4.4104 1.1007,1.2379 1.6611,2.6385 1.6773,4.2052 z m 10.2914,6.9384 c 3.3735,1.9927 7.0081,2.7232 10.9109,2.1926 3.905,-0.5352 7.2833,-2.2286 10.1375,-5.0831 3.4053,-3.405 5.1069,-7.5314 5.1069,-12.3809 0,-4.8487 -1.7016,-8.975 -5.1069,-12.38 l -24.7632,-24.7618 c -1.1004,-1.1035 -2.4758,-1.6509 -4.1269,-1.6509 -1.6509,0 -3.0209,0.5497 -4.1245,1.6532 l -33.0148,33.0142 c -1.1007,1.1005 -1.6512,2.475 -1.6512,4.1253 0,1.6512 0.5477,3.0257 1.6512,4.1278 l 16.7119,16.7137 c 3.3367,3.3349 7.4214,4.9776 12.2528,4.9263 4.8302,-0.0516 8.9342,-1.7626 12.3046,-5.133 1.5798,-1.5806 2.8177,-3.3712 3.7117,-5.3634"
             style="fill:url(#linearGradient915);fill-rule:evenodd;stroke:none"
             id="path917" />
        </g>
      </g>
    </g>
    <g
       id="g919">
      <g
         id="g921">
        <g
           id="g927">
          <path
             d="m 130.2806,568.673 -6.5183,-6.518 v -2.378 c 0,-4.7687 1.7275,-8.8775 5.1803,-12.3304 3.4546,-3.4523 7.562,-5.1789 12.3291,-5.1789 4.8152,0 8.9382,1.7138 12.3661,5.1415 3.4293,3.4305 5.1426,7.5532 5.1426,12.3678 v 23.3433 c 0,1.5103 0.5956,2.8599 1.787,4.0508 1.1917,1.1916 2.5415,1.7889 4.049,1.7889 1.6061,0 2.9812,-0.5726 4.1207,-1.7158 1.1463,-1.1441 1.7152,-2.518 1.7152,-4.1239 v -35.0175 c 0,-1.8484 0.5741,-3.2833 1.7153,-4.3038 1.1449,-1.0208 2.5172,-1.5313 4.1221,-1.5313 1.5571,0 2.9186,0.5105 4.0856,1.5313 1.167,1.0205 1.7504,2.4554 1.7504,4.3038 v 35.0175 c 0,4.8158 -1.7138,8.9377 -5.1429,12.3679 -3.4296,3.4293 -7.5521,5.144 -12.3664,5.144 -4.7662,0 -8.8747,-1.7274 -12.3285,-5.1803 -3.4526,-3.4551 -5.1797,-7.5648 -5.1797,-12.3316 l -0.001,-23.3433 c 0,-1.6049 -0.5698,-2.98 -1.713,-4.1221 -1.1421,-1.1438 -2.5189,-1.7155 -4.1224,-1.7155 -1.5061,0 -2.8585,0.5955 -4.0499,1.7878 -1.1903,1.1905 -1.7861,2.5421 -1.7861,4.0498 l -0.0491,21.1028 c -0.0399,-4.7744 -1.741,-8.8407 -5.106,-12.2068"
             style="fill:url(#linearGradient933);fill-rule:evenodd;stroke:none"
             id="path935" />
        </g>
      </g>
    </g>
    <path
       d="m 233.2114,551.4304 c 1.5661,0 3.0453,0.3337 4.4663,1.0151 1.3918,0.6236 2.6098,1.537 3.6538,2.7261 1.0729,1.1888 1.8995,2.5373 2.465,4.0745 0.6237,1.5803 0.9281,3.2479 0.9281,4.9734 0,1.7254 -0.3044,3.3786 -0.9281,4.9589 -0.5655,1.5373 -1.3921,2.9002 -2.465,4.089 -1.044,1.1602 -2.262,2.0591 -3.6538,2.7116 -1.421,0.6815 -2.9002,1.0296 -4.4663,1.0296 -1.5514,0 -3.0594,-0.3481 -4.4949,-1.0296 -1.3629,-0.6525 -2.5809,-1.5514 -3.6539,-2.7116 -1.044,-1.1888 -1.8705,-2.5517 -2.465,-4.089 -0.5947,-1.5803 -0.8991,-3.2335 -0.8991,-4.9589 0,-1.7255 0.3044,-3.3931 0.8991,-4.9734 0.5945,-1.5372 1.421,-2.8857 2.465,-4.0745 1.073,-1.1891 2.291,-2.1025 3.6539,-2.7261 1.4355,-0.6814 2.9435,-1.0151 4.4949,-1.0151 z m 0,34.6986 c 2.8131,0 5.4811,-0.5799 8.0331,-1.7399 2.465,-1.1021 4.64,-2.6535 6.5395,-4.6692 1.9284,-2.0443 3.4076,-4.3645 4.4226,-6.9599 1.1019,-2.7261 1.6529,-5.5681 1.6529,-8.5405 0,-2.9724 -0.551,-5.8289 -1.6529,-8.5405 -1.015,-2.6099 -2.4942,-4.93 -4.4226,-6.9744 -1.8995,-2.0012 -4.0745,-3.5671 -6.5395,-4.6692 -2.552,-1.1599 -5.22,-1.7399 -8.0331,-1.7399 -4.2194,0 -8.0473,1.247 -11.5129,3.7409 v -3.7409 h -9.1349 v 61.9004 c 1.3629,1.044 3.219,1.8128 5.5681,2.2913 1.3918,0.2752 2.4213,0.4204 3.1028,0.4204 0.174,0 0.3336,-0.0145 0.464,-0.0434 v -24.4616 c 3.4656,2.4939 7.2935,3.7264 11.5129,3.7264 z m 52.3888,0 c 0.0289,-0.1304 0.0436,-0.2899 0.0436,-0.464 0,-0.7104 -0.1451,-1.7399 -0.4351,-3.1031 -0.4496,-2.2909 -1.2036,-4.1468 -2.2476,-5.5533 -1.7832,-0.1741 -3.5668,-0.8266 -5.3504,-1.9576 -3.5671,-2.2621 -5.3504,-5.8726 -5.3504,-10.8315 v -21.924 h -9.1352 v 41.1656 c 1.3632,1.0729 3.2191,1.8414 5.5681,2.2909 1.3774,0.29 2.4214,0.4204 3.1031,0.4204 0.1593,0 0.3189,-0.0144 0.464,-0.0434 v -3.683 c 0.6523,0.4496 1.2904,0.841 1.914,1.1891 0.4785,0.2755 0.9278,0.5074 1.3484,0.667 0.7104,0.3478 1.421,0.6233 2.1314,0.8555 0.4785,0.1741 0.957,0.3189 1.4355,0.4204 0.3481,0.087 0.5947,0.1451 0.7687,0.174 0.4493,0.0871 0.9715,0.1741 1.537,0.2611 0.754,0.087 1.5514,0.1159 2.378,0.1159 z m 25.6215,-34.6986 c 1.5514,0 3.045,0.3337 4.4515,1.0151 1.3921,0.6236 2.6099,1.537 3.6539,2.7261 1.0732,1.1888 1.8998,2.5373 2.465,4.0745 0.6236,1.5803 0.9425,3.2479 0.9425,4.9734 0,1.7254 -0.3189,3.3786 -0.9425,4.9589 -0.5652,1.5373 -1.3918,2.9002 -2.465,4.089 -1.044,1.1602 -2.2618,2.0591 -3.6539,2.7116 -1.4065,0.6815 -2.9001,1.0296 -4.4515,1.0296 -1.5659,0 -3.0594,-0.3481 -4.5094,-1.0296 -1.3631,-0.6525 -2.5812,-1.5514 -3.6541,-2.7116 -1.044,-1.1888 -1.8706,-2.5517 -2.465,-4.089 -0.5944,-1.5803 -0.8844,-3.2335 -0.8844,-4.9589 0,-1.7255 0.29,-3.3931 0.8844,-4.9734 0.5944,-1.5372 1.421,-2.8857 2.465,-4.0745 1.0729,-1.1891 2.291,-2.1025 3.6541,-2.7261 1.45,-0.6814 2.9435,-1.0151 4.5094,-1.0151 z m 0,34.6986 c 2.7986,0 5.4811,-0.5799 8.0186,-1.7399 2.4651,-1.1021 4.6545,-2.6535 6.554,-4.6692 1.914,-2.0443 3.3928,-4.3645 4.4079,-6.9599 1.1021,-2.7261 1.6532,-5.5681 1.6532,-8.5405 0,-2.9724 -0.5511,-5.8289 -1.6532,-8.5405 -1.0151,-2.6099 -2.4939,-4.93 -4.4079,-6.9744 -1.8995,-2.0012 -4.0889,-3.5671 -6.554,-4.6692 -2.5375,-1.1599 -5.22,-1.7399 -8.0186,-1.7399 -2.8131,0 -5.4811,0.58 -8.0331,1.7399 -2.465,1.1021 -4.6545,2.668 -6.5829,4.6692 -1.8995,2.0444 -3.3786,4.3645 -4.4226,6.9744 -1.0729,2.7116 -1.6095,5.5681 -1.6095,8.5405 0,2.9724 0.5366,5.8144 1.6095,8.5405 1.044,2.5954 2.5231,4.9156 4.4226,6.9599 1.9284,2.0157 4.1179,3.5671 6.5829,4.6692 2.552,1.16 5.22,1.7399 8.0331,1.7399 z m 44.2542,-33.6835 c 1.4499,-0.6814 2.9435,-1.0151 4.5094,-1.0151 1.5514,0 3.0449,0.3337 4.4515,1.0151 1.3921,0.6236 2.6098,1.537 3.6538,2.7261 1.0732,1.1888 1.8998,2.5373 2.4651,4.0745 0.6236,1.5803 0.9425,3.2479 0.9425,4.9734 0,1.7254 -0.3189,3.3786 -0.9425,4.9589 -0.5653,1.5373 -1.3919,2.9002 -2.4651,4.089 -1.044,1.1602 -2.2617,2.0591 -3.6538,2.7116 -1.4066,0.6815 -2.9001,1.0296 -4.4515,1.0296 -1.5659,0 -3.0595,-0.3481 -4.5094,-1.0296 -1.3632,-0.6525 -2.5812,-1.5514 -3.6541,-2.7116 -1.044,-1.1888 -1.8706,-2.5517 -2.465,-4.089 -0.5945,-1.5803 -0.8845,-3.2335 -0.8845,-4.9589 0,-1.7255 0.29,-3.3931 0.8845,-4.9734 0.5944,-1.5372 1.421,-2.8857 2.465,-4.0745 1.0729,-1.1891 2.2909,-2.1025 3.6541,-2.7261 z m 16.0223,51.7504 c 1.3487,1.044 3.2045,1.8128 5.5536,2.2913 1.3921,0.2752 2.4214,0.4204 3.1031,0.4204 0.1738,0 0.3334,-0.0145 0.464,-0.0434 v -64.5687 h -9.1207 v 3.7409 c -3.4943,-2.4939 -7.3225,-3.7409 -11.5129,-3.7409 -2.8131,0 -5.4811,0.58 -8.0331,1.7399 -2.4651,1.1021 -4.6545,2.668 -6.5829,4.6692 -1.8995,2.0444 -3.3787,4.3645 -4.4227,6.9744 -1.0729,2.7116 -1.6095,5.5681 -1.6095,8.5405 0,2.9724 0.5366,5.8144 1.6095,8.5405 1.044,2.5954 2.5232,4.9156 4.4227,6.9599 1.9284,2.0157 4.1178,3.5671 6.5829,4.6692 2.552,1.16 5.22,1.7399 8.0331,1.7399 4.1904,0 8.0186,-1.2325 11.5129,-3.7264 z m 41.3251,-18.0669 c 4.1908,0 8.0187,-1.2325 11.4696,-3.683 2.842,-2.0154 5.0607,-4.6109 6.6702,-7.7865 1.6673,-3.219 2.5084,-6.6988 2.5084,-10.44 v -21.924 h -9.1786 v 21.924 c 0,1.7254 -0.29,3.3786 -0.8844,4.9589 -0.5655,1.5373 -1.3921,2.9002 -2.465,4.089 -1.044,1.1602 -2.2621,2.0591 -3.6539,2.7116 -1.421,0.6815 -2.9001,1.0296 -4.4663,1.0296 -1.5514,0 -3.0594,-0.3481 -4.4949,-1.0296 -1.3629,-0.6525 -2.5809,-1.5514 -3.6538,-2.7116 -1.044,-1.1888 -1.8706,-2.5517 -2.465,-4.089 -0.5947,-1.5803 -0.8992,-3.2335 -0.8992,-4.9589 v -21.924 h -9.1349 v 41.1656 c 1.3629,1.0729 3.219,1.8414 5.5681,2.2909 1.3918,0.29 2.4213,0.4204 3.1028,0.4204 0.174,0 0.3336,-0.0144 0.464,-0.0434 v -3.7264 c 3.4657,2.4939 7.2936,3.7264 11.5129,3.7264 z m 60.929,-18.2554 c -0.7103,2.6825 -2.0298,4.8719 -3.9583,6.5396 -1.9865,1.7254 -4.2485,2.5954 -6.8006,2.5954 -2.5375,0 -4.7996,-0.87 -6.7424,-2.5954 -1.8706,-1.6677 -3.1757,-3.8571 -3.915,-6.5396 z m -21.4163,-7.308 c 0.7104,-2.639 2.088,-4.7851 4.1179,-6.4525 2.0155,-1.6531 4.3212,-2.5375 6.931,-2.6827 0.5074,-0.0289 0.9859,-0.0433 1.4355,-0.0433 2.842,0 5.017,0.5074 6.5395,1.5224 1.711,-0.5074 3.3642,-1.6384 4.9737,-3.393 0.9422,-0.9859 1.6673,-1.9576 2.2184,-2.8854 -2.2476,-1.508 -4.3501,-2.5665 -6.3366,-3.1901 -2.4361,-0.7685 -5.3796,-1.1455 -8.8305,-1.1455 -2.8131,0 -5.4811,0.58 -8.0331,1.7399 -2.465,1.1021 -4.6545,2.668 -6.5829,4.6692 -1.8995,2.0444 -3.3786,4.3645 -4.4226,6.9744 -1.0729,2.7116 -1.6095,5.5681 -1.6095,8.5405 0,2.9724 0.5366,5.8144 1.6095,8.5405 1.044,2.5954 2.5231,4.9156 4.4226,6.9599 1.9284,2.0157 4.1179,3.5671 6.5829,4.6692 2.552,1.16 5.22,1.7399 8.0331,1.7399 2.4939,0 4.8719,-0.464 7.134,-1.3921 2.175,-0.9133 4.1615,-2.2039 5.9451,-3.8712 1.7254,-1.6387 3.1609,-3.5671 4.2919,-5.7711 1.131,-2.2476 1.914,-4.6545 2.3346,-7.221 0.1741,-1.218 0.2611,-2.4361 0.2611,-3.6541 0,-1.247 -0.087,-2.465 -0.2611,-3.6539 z m 59.247,-9.1352 c 1.0876,-1.421 1.8272,-3.2768 2.262,-5.5678 0.2755,-1.334 0.4207,-2.3346 0.4207,-3.016 0,-0.2322 -0.0148,-0.406 -0.0437,-0.5511 l -2.7983,0.0434 c -3.3787,0.174 -6.1047,0.841 -8.2072,2.0012 -0.957,0.5655 -1.7399,1.0729 -2.3346,1.5225 -2.088,1.6095 -3.7409,3.5958 -4.9297,5.9448 -1.2473,2.4361 -1.8706,5.046 -1.8706,7.8157 v 19.1254 h -6.1481 v 0.2029 c 0,0.9136 0.1451,1.9287 0.464,3.0597 0.4785,1.7255 1.2036,3.1029 2.1606,4.1179 h 3.5235 v 9.6135 c 1.2758,0.9569 2.9724,1.682 5.0604,2.1605 1.4499,0.3045 2.7261,0.4641 3.8282,0.4641 h 0.2463 V 586.129 h 10.4111 v -0.2029 c 0,-0.9136 -0.1596,-1.9284 -0.464,-3.0595 -0.4785,-1.7257 -1.2036,-3.103 -2.1751,-4.1181 h -7.772 v -19.1254 c 0,-1.7257 0.4496,-3.2045 1.3195,-4.4515 0.6815,-1.0006 1.6385,-1.8125 2.8854,-2.465 1.3921,-0.7396 2.7842,-1.16 4.1616,-1.2762"
       style="fill:#ffffff;fill-opacity:1;fill-rule:nonzero;stroke:none"
       id="path937" />
    <path
       d="m 276.9049,516.2389 h -2.08 c -0.2333,0 -0.4233,0.0601 -0.5732,0.1766 -0.15,0.1168 -0.26,0.2599 -0.3266,0.4334 l -1.08,2.95 h -5.9901 l -1.08,-2.95 c -0.0533,-0.1534 -0.1565,-0.2934 -0.3133,-0.4201 -0.1567,-0.1267 -0.35,-0.1899 -0.5765,-0.1899 h -2.09 l 5.6798,14.4598 h 2.7501 z m -9.36,5.4499 h 4.61 l -1.7598,4.8101 c -0.0802,0.2131 -0.1666,0.4665 -0.2633,0.7565 -0.0967,0.29 -0.1933,0.6032 -0.2869,0.9434 -0.0932,-0.3402 -0.1831,-0.6568 -0.2732,-0.9499 -0.0899,-0.2934 -0.18,-0.5502 -0.2668,-0.7702 z m 13.6301,-0.3498 v -5.0902 h -2.6901 v 14.47 h 4.7101 c 0.9666,0 1.8031,-0.1134 2.5098,-0.3402 0.7067,-0.2264 1.29,-0.5431 1.7501,-0.9498 0.4601,-0.4068 0.7999,-0.8966 1.0199,-1.4633 0.22,-0.5666 0.33,-1.1869 0.33,-1.8601 0,-0.7033 -0.1165,-1.3433 -0.3498,-1.9298 -0.2333,-0.5834 -0.5834,-1.0834 -1.05,-1.5069 -0.4669,-0.4198 -1.0502,-0.7467 -1.7501,-0.9799 -0.6999,-0.2333 -1.5199,-0.3498 -2.4599,-0.3498 z m 0,2.0999 h 2.02 c 0.4932,0 0.9232,0.0632 1.29,0.1865 0.3666,0.1233 0.6699,0.3002 0.91,0.5301 0.2398,0.2299 0.4198,0.5099 0.54,0.8399 0.1199,0.3333 0.18,0.7001 0.18,1.11 0,0.3867 -0.0601,0.7367 -0.18,1.05 -0.1202,0.3135 -0.3002,0.5833 -0.54,0.8033 -0.2401,0.22 -0.5434,0.3867 -0.91,0.5034 -0.3668,0.1165 -0.7968,0.1766 -1.29,0.1766 h -2.02 z m 12.4098,-4.9799 h 5.7901 v -2.2201 h -8.4799 v 14.4598 h 2.6898 z m 10.6801,-2.2201 h -2.7 v 14.4598 h 2.7 z m 6.0299,8.3999 h 0.6298 c 0.2534,0 0.4635,0.0365 0.6302,0.1066 0.1666,0.07 0.3098,0.18 0.43,0.3333 l 3.9898,5.0499 c 0.1666,0.2135 0.3432,0.3634 0.5266,0.4468 0.1834,0.0833 0.4133,0.1233 0.6934,0.1233 h 2.3201 l -4.8702,-6.01 c -0.1533,-0.1866 -0.2999,-0.3433 -0.4399,-0.47 -0.14,-0.1264 -0.29,-0.2299 -0.4499,-0.3098 0.22,-0.08 0.4199,-0.1934 0.5967,-0.3402 0.1766,-0.1466 0.3467,-0.3334 0.5131,-0.5598 l 5.0202,-6.77 h -2.38 c -0.32,0 -0.5567,0.0467 -0.7135,0.1366 -0.1565,0.0901 -0.29,0.22 -0.3966,0.3934 l -4.0901,5.34 c -0.1332,0.1731 -0.2831,0.2999 -0.4498,0.3767 -0.1667,0.0765 -0.4034,0.1131 -0.7101,0.1131 h -0.8498 v -6.3598 h -2.6901 v 14.4799 h 2.6901 z m 23.8895,-8.3999 h -2.08 c -0.2333,0 -0.4233,0.0601 -0.5732,0.1766 -0.15,0.1168 -0.26,0.2599 -0.3266,0.4334 l -1.08,2.95 h -5.9901 l -1.08,-2.95 c -0.0533,-0.1534 -0.1565,-0.2934 -0.3133,-0.4201 -0.1567,-0.1267 -0.35,-0.1899 -0.5765,-0.1899 h -2.09 l 5.6798,14.4598 h 2.7501 z m -9.36,5.4499 h 4.61 l -1.7597,4.8101 c -0.0803,0.2131 -0.1667,0.4665 -0.2634,0.7565 -0.0966,0.29 -0.1933,0.6032 -0.2869,0.9434 -0.0932,-0.3402 -0.1831,-0.6568 -0.2732,-0.9499 -0.0899,-0.2934 -0.18,-0.5502 -0.2668,-0.7702 z m 20.2799,-2.0399 c 0.1469,0 0.2736,-0.0566 0.3801,-0.17 l 1.0599,-1.15 c -0.5865,-0.7269 -1.3065,-1.2833 -2.1631,-1.6699 -0.8566,-0.3867 -1.8867,-0.58 -3.0866,-0.58 -1.0735,0 -2.0367,0.1831 -2.8934,0.5499 -0.8566,0.3665 -1.5899,0.8765 -2.1968,1.5299 -0.6066,0.6534 -1.0698,1.4335 -1.3932,2.34 -0.3235,0.9068 -0.4868,1.8966 -0.4868,2.9701 0,1.0865 0.18,2.0832 0.54,2.9866 0.36,0.9034 0.8669,1.6798 1.52,2.3332 0.6534,0.6534 1.4369,1.1633 2.3468,1.5267 0.9099,0.3634 1.9134,0.5434 3.0132,0.5434 1.0735,0 2.0135,-0.1734 2.8168,-0.5167 0.8033,-0.3467 1.4899,-0.8034 2.0633,-1.3734 l -0.9,-1.2498 c -0.0535,-0.0802 -0.1201,-0.1502 -0.2035,-0.21 -0.0833,-0.0601 -0.1998,-0.0902 -0.3467,-0.0902 -0.1533,0 -0.3098,0.0601 -0.4699,0.18 -0.1599,0.1202 -0.3632,0.25 -0.6101,0.3901 -0.2466,0.14 -0.5564,0.2701 -0.9331,0.39 -0.3768,0.1199 -0.8567,0.18 -1.4366,0.18 -0.6801,0 -1.3034,-0.1168 -1.8734,-0.3535 -0.5701,-0.2364 -1.0602,-0.5765 -1.4701,-1.0165 -0.4099,-0.4368 -0.7299,-0.9734 -0.9601,-1.6033 -0.2299,-0.6267 -0.3464,-1.3368 -0.3464,-2.12 0,-0.8132 0.1165,-1.5366 0.3464,-2.1699 0.2302,-0.6336 0.54,-1.1633 0.9335,-1.5968 0.3934,-0.4334 0.8566,-0.7667 1.3901,-0.9966 0.5332,-0.2299 1.1066,-0.3433 1.7198,-0.3433 0.3668,0 0.7001,0.0198 0.9966,0.0598 0.2968,0.0403 0.5701,0.1035 0.8201,0.1902 0.25,0.0868 0.4867,0.1967 0.7101,0.3334 0.2233,0.1366 0.4433,0.3067 0.6633,0.5065 0.0666,0.0601 0.1366,0.1066 0.21,0.1435 0.0731,0.0365 0.1534,0.0566 0.2398,0.0566 z m 9.29,1.73 c 0,-0.8135 -0.1001,-1.5468 -0.2999,-2.1999 -0.2001,-0.6534 -0.4966,-1.2101 -0.8935,-1.6702 -0.3965,-0.4601 -0.8932,-0.8133 -1.4865,-1.0599 -0.5933,-0.2466 -1.2835,-0.3699 -2.0701,-0.3699 -0.36,0 -0.7132,0.0232 -1.0599,0.0666 -0.3467,0.0434 -0.7101,0.11 -1.0899,0.2033 l 0.1397,1.5998 c 0.0134,0.1469 0.0701,0.2668 0.1667,0.3569 0.0967,0.0899 0.2367,0.1332 0.4235,0.1332 0.1134,0 0.2634,-0.0232 0.4468,-0.07 0.1831,-0.0468 0.4132,-0.07 0.693,-0.07 0.3802,0 0.7169,0.0567 1.01,0.1667 0.2934,0.11 0.54,0.2834 0.7367,0.5233 0.1968,0.2401 0.3433,0.5533 0.4434,0.9368 0.1,0.3833 0.1499,0.8464 0.1499,1.3932 v 9.3799 h 2.6901 z m 12.0402,9.3198 v -2.1399 h -6.41 v -4 h 5.0499 v -2.08 h -5.0499 v -4.0799 h 6.41 v -2.16 h -9.1199 v 14.4598 z m 9.2199,-14.4598 h -2.7 v 14.4598 h 2.7 z m 4.6599,14.4598 c 0.1199,0 0.22,-0.003 0.2999,-0.0133 0.0799,-0.01 0.1534,-0.0301 0.2166,-0.0599 0.0635,-0.03 0.1233,-0.0734 0.1834,-0.1301 0.0601,-0.0567 0.1267,-0.1332 0.2001,-0.2267 l 7.5898,-9.6699 c -0.0267,0.2333 -0.0434,0.4635 -0.0533,0.6866 -0.01,0.2234 -0.0167,0.43 -0.0167,0.6233 v 8.79 h 2.37 v -14.4598 h -1.3901 c -0.2132,0 -0.3898,0.0334 -0.5298,0.1 -0.14,0.0666 -0.2767,0.1865 -0.4102,0.36 l -7.5597,9.6299 c 0.0198,-0.2135 0.0366,-0.4232 0.0465,-0.6333 0.0102,-0.21 0.0133,-0.4033 0.0133,-0.5768 v -8.8798 h -2.3697 v 14.4598 z m 23.8998,0.0201 v -2.2201 h -4.3498 v -12.2499 h -2.6901 v 12.2499 h -4.3699 v 2.2201 z m 10.83,-0.0201 v -2.1399 h -6.41 v -4 h 5.0499 v -2.08 h -5.0499 v -4.0799 h 6.41 v -2.16 h -9.1199 v 14.4598 z m 5.11,-8.7999 v -5.65 h -2.6901 v 14.47 h 4.4099 c 0.9867,0 1.8334,-0.1035 2.5367,-0.3067 0.7033,-0.2032 1.2801,-0.4867 1.73,-0.8532 0.4501,-0.3702 0.7801,-0.8068 0.9901,-1.3167 0.2098,-0.5134 0.3133,-1.0735 0.3133,-1.6866 0,-0.4902 -0.07,-0.9502 -0.2135,-1.3833 -0.1431,-0.4335 -0.3498,-0.8269 -0.6199,-1.1801 -0.2699,-0.3566 -0.6032,-0.6667 -1.0001,-0.9335 -0.3965,-0.2664 -0.8498,-0.4799 -1.3566,-0.64 0.3401,-0.1933 0.6335,-0.47 0.8801,-0.83 l 3.6199,-5.3399 h -2.42 c -0.2333,0 -0.43,0.0468 -0.5933,0.14 -0.1632,0.0933 -0.3033,0.2268 -0.4167,0.4 l -3.0398,4.6301 c -0.1134,0.1732 -0.2367,0.2965 -0.3734,0.3699 -0.1366,0.0734 -0.3401,0.11 -0.6066,0.11 z m 0,1.94 h 1.6798 c 0.5069,0 0.9502,0.0632 1.3266,0.19 0.3768,0.1267 0.6869,0.3033 0.9301,0.5266 0.2435,0.2234 0.4235,0.4867 0.5434,0.7935 0.1199,0.3067 0.18,0.6431 0.18,1.0099 0,0.7334 -0.2401,1.2966 -0.7234,1.6901 -0.4833,0.3931 -1.2232,0.5898 -2.2167,0.5898 h -1.7198 z m 11.7301,6.8599 c 0.1199,0 0.2199,-0.003 0.2999,-0.0133 0.0799,-0.01 0.1533,-0.0301 0.2165,-0.0599 0.0635,-0.03 0.1233,-0.0734 0.1834,-0.1301 0.0601,-0.0567 0.1267,-0.1332 0.2002,-0.2267 l 7.5897,-9.6699 c -0.0266,0.2333 -0.0433,0.4635 -0.0533,0.6866 -0.01,0.2234 -0.0167,0.43 -0.0167,0.6233 v 8.79 h 2.3701 v -14.4598 h -1.3902 c -0.2131,0 -0.3897,0.0334 -0.5297,0.1 -0.1401,0.0666 -0.2767,0.1865 -0.4102,0.36 l -7.5597,9.6299 c 0.0198,-0.2135 0.0365,-0.4232 0.0465,-0.6333 0.0102,-0.21 0.0133,-0.4033 0.0133,-0.5768 v -8.8798 h -2.3698 v 14.4598 z m 22.8299,0 v -2.1399 h -6.41 v -4 h 5.05 v -2.08 h -5.05 v -4.0799 h 6.41 v -2.16 h -9.1199 v 14.4598 z m 12.5198,0.0201 v -2.2201 h -4.3498 v -12.2499 h -2.69 v 12.2499 h -4.3699 v 2.2201 z m 14.8,-7.2499 c 0,-1.0601 -0.1766,-2.0401 -0.5298,-2.9435 -0.3535,-0.9031 -0.8501,-1.6866 -1.4902,-2.3465 -0.6398,-0.6599 -1.41,-1.1733 -2.31,-1.5435 -0.9,-0.3699 -1.8966,-0.5564 -2.9899,-0.5564 -1.0934,0 -2.09,0.1865 -2.9931,0.5564 -0.9034,0.3702 -1.6767,0.8836 -2.3202,1.5435 -0.6432,0.6599 -1.1432,1.4434 -1.4967,2.3465 -0.3532,0.9034 -0.5298,1.8834 -0.5298,2.9435 0,1.0599 0.1766,2.0432 0.5298,2.9466 0.3535,0.9031 0.8535,1.6832 1.4967,2.3431 0.6435,0.6602 1.4168,1.1767 2.3202,1.5469 0.9031,0.3699 1.8997,0.5533 2.9931,0.5533 1.0933,0 2.0899,-0.1868 2.9899,-0.5601 0.9,-0.3733 1.6702,-0.8867 2.31,-1.5432 0.6401,-0.6568 1.1367,-1.4369 1.4902,-2.34 0.3532,-0.9034 0.5298,-1.8867 0.5298,-2.9466 z m -2.7598,-0.003 c 0,0.79 -0.1035,1.5032 -0.3136,2.13 -0.2097,0.6298 -0.513,1.1667 -0.9065,1.6032 -0.3934,0.44 -0.8699,0.7767 -1.4332,1.01 -0.5635,0.2333 -1.2002,0.3501 -1.9068,0.3501 -0.7067,0 -1.3434,-0.1168 -1.91,-0.3501 -0.5667,-0.2333 -1.0466,-0.57 -1.4431,-1.01 -0.3969,-0.4365 -0.7036,-0.9734 -0.9168,-1.6032 -0.2134,-0.6268 -0.32,-1.34 -0.32,-2.13 0,-0.7934 0.1066,-1.5066 0.32,-2.1333 0.2132,-0.6299 0.5199,-1.1634 0.9168,-1.5999 0.3965,-0.4368 0.8764,-0.7702 1.4431,-1.0035 0.5666,-0.2333 1.2033,-0.3501 1.91,-0.3501 0.7066,0 1.3433,0.1168 1.9068,0.3501 0.5633,0.2333 1.0398,0.5667 1.4332,1.0035 0.3935,0.4365 0.6968,0.97 0.9065,1.5999 0.2101,0.6267 0.3136,1.3399 0.3136,2.1333 z m 3.5399,7.2332 h 2.26 c 0.2333,0 0.43,-0.0533 0.5868,-0.1633 0.1565,-0.11 0.2599,-0.2599 0.3132,-0.4467 l 2.4599,-8.65 c 0.0601,-0.2131 0.1168,-0.4433 0.1667,-0.6933 0.0502,-0.25 0.0967,-0.5165 0.1434,-0.7965 0.0533,0.28 0.1134,0.5465 0.1766,0.7965 0.0635,0.25 0.1301,0.4802 0.2033,0.6933 l 2.84,8.65 c 0.0533,0.1533 0.1602,0.2933 0.3166,0.4201 0.1568,0.1267 0.3467,0.1899 0.5735,0.1899 h 0.79 c 0.2333,0 0.4266,-0.0533 0.58,-0.1633 0.1533,-0.11 0.2599,-0.2599 0.32,-0.4467 l 2.8199,-8.65 c 0.1466,-0.4266 0.2733,-0.9 0.3801,-1.4198 0.0465,0.2599 0.0967,0.5099 0.1466,0.75 0.0499,0.2398 0.1001,0.4632 0.1533,0.6698 l 2.4599,8.65 c 0.0468,0.1666 0.15,0.3101 0.3102,0.43 0.1598,0.1202 0.3532,0.18 0.5799,0.18 h 2.1099 l -4.4898,-14.4598 h -2.4302 l -3.1598,9.8798 c -0.0399,0.1267 -0.0799,0.2634 -0.1233,0.4102 -0.0433,0.1466 -0.0867,0.3033 -0.1267,0.47 -0.0399,-0.1667 -0.0799,-0.3234 -0.1233,-0.47 -0.0434,-0.1468 -0.0867,-0.2835 -0.1267,-0.4102 l -3.1901,-9.8798 h -2.4299 z m 31.39,0 v -2.1399 h -6.41 v -4 h 5.0499 v -2.08 h -5.0499 v -4.0799 h 6.41 v -2.16 h -9.1199 v 14.4598 z"
       style="fill:#ffffff;fill-opacity:1;fill-rule:nonzero;stroke:none"
       id="path939" />
  </g>
</svg>
